<svg width="107" height="107" viewBox="0 0 107 107" fill="none" xmlns="http://www.w3.org/2000/svg">
<path fill-rule="evenodd" clip-rule="evenodd" d="M91.3302 15.6698C101.363 25.703 107 39.3109 107 53.5H53.5L0 53.5C2.14249e-06 39.3109 5.63659 25.703 15.6698 15.6698C25.703 5.63659 39.3109 0 53.5 0C67.6891 0 81.297 5.63659 91.3302 15.6698ZM53.5 37.4499C59.4095 37.4499 64.2001 32.6593 64.2001 26.7499C64.2001 20.8404 59.4095 16.0499 53.5 16.0499C47.5906 16.0499 42.8 20.8404 42.8 26.7499C42.8 32.6593 47.5906 37.4499 53.5 37.4499Z" fill="black"/>
<mask id="mask0_9_36" style="mask-type:alpha" maskUnits="userSpaceOnUse" x="0" y="53" width="107" height="54">
<path d="M107 53.5C107 67.6891 101.363 81.297 91.3302 91.3302C81.297 101.363 67.6891 107 53.5 107C39.3109 107 25.703 101.363 15.6698 91.3302C5.6366 81.297 2.14249e-06 67.6891 0 53.5L53.5 53.5H107Z" fill="white"/>
</mask>
<g mask="url(#mask0_9_36)">
<rect x="-6.95496" y="69.5498" width="126.046" height="5.35" fill="black"/>
<rect x="-7.38306" y="80.25" width="126.046" height="5.35" fill="black"/>
<rect x="-9.52295" y="90.9502" width="126.046" height="5.35" fill="black"/>
<rect x="-9.52295" y="101.65" width="126.046" height="5.35" fill="black"/>
<rect x="-9.52295" y="58.8501" width="126.046" height="5.35" fill="black"/>
</g>
</svg>
