<?xml version="1.0" standalone="no"?>
<!DOCTYPE svg PUBLIC "-//W3C//DTD SVG 20010904//EN" "http://www.w3.org/TR/2001/REC-SVG-20010904/DTD/svg10.dtd">
<svg version="1.0" xmlns="http://www.w3.org/2000/svg"
    width="54" height="54" viewBox="0 0 260.000000 280.000000"
    preserveAspectRatio="xMidYMid meet">

    <g transform="translate(0.000000,280.000000) scale(0.100000,-0.100000)"
        fill="#000000" stroke="none">
        <path
            d="M1105 2694 c-386 -59 -701 -275 -903 -617 -92 -155 -132 -286 -152
-489 -14 -141 -6 -310 15 -331 10 -11 252 -14 1231 -15 735 -1 1225 2 1234 7
32 21 38 261 10 423 -24 139 -45 209 -95 313 -183 387 -547 648 -985 710 -132
18 -234 18 -355 -1z m274 -284 c50 -25 109 -94 117 -137 16 -83 -20 -164 -93
-213 -53 -36 -153 -36 -207 0 -59 40 -96 103 -96 166 0 64 9 89 47 130 64 71
157 93 232 54z" />
        <path
            d="M76 1155 c-7 -19 7 -57 25 -70 9 -6 454 -8 1209 -5 l1194 5 15 26 c8
14 11 33 8 42 -6 16 -100 17 -1226 17 -1077 0 -1220 -2 -1225 -15z" />
        <path
            d="M140 956 c0 -60 -74 -56 1159 -56 1080 0 1129 1 1144 18 10 10 17 28
17 40 l0 22 -1160 0 -1160 0 0 -24z" />
        <path
            d="M230 777 c0 -8 8 -21 19 -31 17 -15 94 -17 992 -17 1178 -1 1084 -3
1103 17 46 46 85 44 -1049 44 -885 0 -1065 -2 -1065 -13z" />
        <path
            d="M383 597 c-3 -5 2 -16 10 -25 14 -14 110 -15 907 -15 841 0 892 1
908 18 9 9 13 19 7 21 -22 8 -1827 8 -1832 1z" />
        <path
            d="M620 395 c10 -12 103 -14 648 -14 638 1 712 3 712 20 0 5 -279 9
-686 9 -600 0 -685 -2 -674 -15z" />
        <path
            d="M1100 210 c0 -17 64 -22 228 -18 112 2 165 7 174 16 10 9 -29 12
-195 12 -125 0 -207 -4 -207 -10z" />
    </g>
</svg>